<svg xmlns="http://www.w3.org/2000/svg" fill="none" viewBox="-0.5 -0.5 24 24" id="Steam--Streamline-Svg-Logos.svg" height="24" width="24"><desc>Steam Streamline Icon: https://streamlinehq.com</desc><path fill="#1A1918" d="M11.480689583333335 0.23958333333333334C5.6188520833333335 0.23958333333333334 0.81681625 4.800746875000001 0.36077895833333334 10.596746875000001L6.341435416666666 13.092103125c0.5066229166666666 -0.35005520833333337 1.1192374999999999 -0.5539885416666667 1.7775885416666668 -0.5539885416666667 0.059416666666666666 0 0.11801875 0.0016291666666666666 0.17583020833333335 0.004839583333333334l2.65995 -3.8907854166666667v-0.05457708333333334c0 -2.3412083333333333 1.88758125 -4.246446875 4.207897916666667 -4.246446875 2.320340625 0 4.207897916666667 1.9052385416666668 4.207897916666667 4.246446875 0 2.341184375 -1.8875572916666667 4.2472375 -4.207897916666667 4.2472375 -0.03210416666666667 0 -0.06341770833333334 -0.0008145833333333333 -0.09554583333333333 -0.0016052083333333335L11.273545833333333 15.573827083333333c0.002419791666666667 0.05057604166666667 0.004025 0.10115208333333334 0.004025 0.1509375 0 1.7583020833333336 -1.4170875 3.18823125 -3.1585468750000003 3.18823125 -1.5286854166666668 0 -2.807677083333333 -1.1015322916666666 -3.096710416666667 -2.5595645833333336L0.7445555208333333 14.568607291666668C2.0693099999999998 19.295179166666667 6.372748958333333 22.760416666666668 11.480689583333335 22.760416666666668c6.162921875 0 11.15845 -5.042103125000001 11.15845 -11.260416666666668 0 -6.219128125000001 -4.995528125 -11.260416666666668 -11.15845 -11.260416666666668Zm-4.127302083333333 17.085813541666667 -1.3705125 -0.5716697916666666c0.24248229166666668 0.5106479166666668 0.663190625 0.9377770833333334 1.2211802083333334 1.172209375 1.2059427083333334 0.5074375 2.5965322916666667 -0.06983854166666667 3.0991302083333334 -1.2878083333333334 0.2432729166666667 -0.5893270833333334 0.244878125 -1.2396520833333333 0.004025 -1.830584375 -0.24087708333333335 -0.5909083333333334 -0.696109375 -1.0517708333333333 -1.27980625 -1.2974395833333334 -0.5804864583333333 -0.2432729166666667 -1.2019177083333334 -0.23445625 -1.7478802083333334 -0.02649791666666667l1.416296875 0.5909083333333334c0.889596875 0.3741572916666667 1.3103052083333333 1.4050604166666667 0.9393583333333333 2.302659375 -0.37013229166666667 0.8976229166666667 -1.3921947916666668 1.3223562500000001 -2.2817916666666664 0.9482229166666668Zm10.613302083333334 -8.727733333333335c0 -1.5599989583333336 -1.2581239583333332 -2.8301499999999997 -2.803652083333333 -2.8301499999999997 -1.5463666666666667 0 -2.804466666666667 1.2701510416666666 -2.804466666666667 2.8301499999999997 0 1.5599989583333336 1.2581 2.829359375 2.804466666666667 2.829359375 1.545528125 0 2.803652083333333 -1.2693604166666665 2.803652083333333 -2.829359375Zm-4.9056125 -0.0048156250000000005c0 -1.1738145833333333 0.9433833333333335 -2.125223958333333 2.1059614583333337 -2.125223958333333 1.16336875 0 2.1067760416666665 0.951409375 2.1067760416666665 2.125223958333333s-0.9434072916666667 2.125223958333333 -2.1067760416666665 2.125223958333333c-1.162578125 0 -2.1059614583333337 -0.951409375 -2.1059614583333337 -2.125223958333333Z" stroke-width="1"></path></svg>