<svg xmlns="http://www.w3.org/2000/svg" viewBox="-0.5 -0.5 16 16" id="Telegram--Streamline-Font-Awesome.svg" height="16" width="16"><desc>Telegram Streamline Icon: https://streamlinehq.com</desc><!--! Font Awesome Free 6.5.2 by @fontawesome - https://fontawesome.com License - https://fontawesome.com/license/free (Icons: CC BY 4.0, Fonts: SIL OFL 1.1, Code: MIT License) Copyright 2024 Fonticons, Inc.--><path d="M7.5 0.15C3.440694556451613 0.15 0.15 3.440694556451613 0.15 7.5S3.440694556451613 14.850000000000001 7.5 14.850000000000001 14.850000000000001 11.559305443548388 14.850000000000001 7.5 11.559305443548388 0.15 7.5 0.15Zm3.4068447580645165 4.998592741935484c-0.11060685483870968 1.16221875 -0.5892157258064517 3.982572580645162 -0.8328024193548388 5.2842943548387105 -0.10301915322580645 0.5507752016129032 -0.3059153225806452 0.7354747983870968 -0.5022913306451614 0.753523185483871 -0.42677419354838714 0.03929939516129033 -0.7509435483870968 -0.2820574596774194 -1.1643508064516128 -0.5530584677419356 -0.6468901209677419 -0.42404637096774195 -1.0123457661290323 -0.6880252016129031 -1.640295362903226 -1.1018165322580644 -0.7256643145161291 -0.4781945564516129 -0.2552358870967742 -0.7409274193548387 0.15831955645161291 -1.1706653225806452 0.1082358870967742 -0.11241532258064517 1.9888578629032259 -1.8229778225806452 2.025251008064516 -1.9781582661290324 0.0045362903225806455 -0.019412298387096776 0.008891129032258064 -0.091875 -0.03420060483870968 -0.12992842741935484s-0.10639717741935485 -0.025164314516129032 -0.1521864919354839 -0.014818548387096774q-0.09729737903225806 0.022106854838709677 -3.1002762096774195 2.0491663306451615 -0.43996270161290324 0.30211995967741934 -0.7970594758064516 0.29441431451612904c-0.26243649193548385 -0.005658266129032258 -0.7672469758064516 -0.1483608870967742 -1.1425403225806452 -0.2703780241935484 -0.4602943548387097 -0.1496068548387097 -0.8261340725806452 -0.228710685483871 -0.7942741935483871 -0.48281854838709676q0.024895161290322584 -0.19856854838709678 0.5468044354838709 -0.40602822580645165 3.2140252016129036 -1.4002923387096773 4.286352822580645 -1.846391129032258c2.041167338709678 -0.8490120967741936 2.4653044354838713 -0.9964868951612903 2.741758064516129 -1.0014072580645161 0.06081653225806452 -0.0010070564516129034 0.1967600806451613 0.014047379032258066 0.2848125 0.0855030241935484 0.05857258064516129 0.05090020161290323 0.0959092741935484 0.12193245967741936 0.10461895161290323 0.19904334677419355 0.014921370967741937 0.09574294354838711 0.019067540322580644 0.19285584677419357 0.012359879032258065 0.28952419354838715Z" fill="#000000" stroke-width="1"></path></svg>